<svg aria-hidden="true" style="position: absolute; width: 0; height: 0; overflow: hidden;" version="1.1" xmlns="http://www.w3.org/2000/svg" xmlns:xlink="http://www.w3.org/1999/xlink">
<defs>
<symbol id="icon-logo" viewBox="0 0 140 32">
<path fill="#413e52" style="fill: var(--color1, #413e52)" d="M114.381 22.087h3.464c2.091 0 3.056-1.079 3.056-2.552 0-1.478-0.979-2.367-1.925-2.433v-0.076c0.87-0.233 1.545-0.908 1.545-2.124 0-1.464-0.956-2.547-2.856-2.547h-3.284v9.733zM115.269 21.288v-3.75h2.614c1.308 0 2.168 0.884 2.168 1.996 0 1.008-0.703 1.754-2.205 1.754h-2.576zM115.269 16.75v-3.598h2.396c1.331 0 2.006 0.718 2.006 1.749 0 1.069-0.775 1.849-1.925 1.849h-2.476zM123.046 12.354h-0.846v9.733h0.846v-9.733zM127.453 22.239c1.892 0 3.213-1.545 3.213-3.769 0-2.238-1.321-3.783-3.213-3.783s-3.213 1.544-3.213 3.783c0 2.224 1.322 3.769 3.213 3.769zM127.453 21.464c-1.516 0-2.362-1.359-2.362-2.994s0.845-3.013 2.362-3.013 2.362 1.378 2.362 3.013c0 1.635-0.846 2.994-2.362 2.994zM134.638 24.976c1.73 0 3.013-0.846 3.013-2.699v-7.49h-0.827v1.393h-0.085c-0.3-0.656-0.903-1.492-2.243-1.492-1.806 0-3.018 1.511-3.018 3.731 0 2.238 1.255 3.593 3.004 3.593 1.312 0 1.953-0.76 2.243-1.43h0.076v1.644c0 1.359-0.87 1.991-2.163 1.991-1.25 0-1.848-0.604-2.157-1.16l-0.694 0.456c0.428 0.836 1.359 1.464 2.851 1.464zM134.581 21.236c-1.45 0-2.252-1.16-2.252-2.832 0-1.644 0.788-2.947 2.252-2.947 1.43 0 2.234 1.236 2.234 2.947 0 1.763-0.827 2.832-2.234 2.832z"></path>
<path fill="#413e52" style="fill: var(--color1, #413e52)" d="M36.218 12.297h3.576v9.644h2.441v-9.644h3.576v-2.036h-9.592v2.036zM49.264 22.112c2.167 0 3.627-1.055 3.969-2.68l-2.247-0.148c-0.245 0.667-0.873 1.015-1.682 1.015-1.215 0-1.985-0.804-1.985-2.11v-0.006h5.965v-0.667c0-2.977-1.802-4.448-4.117-4.448-2.578 0-4.249 1.831-4.249 4.534 0 2.777 1.648 4.511 4.346 4.511zM47.319 16.677c0.051-0.998 0.81-1.796 1.888-1.796 1.055 0 1.785 0.753 1.791 1.796h-3.678zM58.024 22.112c2.332 0 3.798-1.369 3.912-3.382h-2.293c-0.143 0.935-0.758 1.46-1.591 1.46-1.135 0-1.871-0.952-1.871-2.629 0-1.654 0.741-2.601 1.871-2.601 0.89 0 1.46 0.587 1.591 1.46h2.293c-0.103-2.025-1.637-3.353-3.924-3.353-2.658 0-4.3 1.842-4.3 4.528 0 2.663 1.614 4.517 4.311 4.517zM65.119 16.877c0.006-1.129 0.696-1.791 1.688-1.791 0.987 0 1.569 0.633 1.563 1.711v5.144h2.429v-5.577c0.006-2.053-1.203-3.296-3.028-3.296-1.329 0-2.218 0.627-2.618 1.66h-0.102v-4.465h-2.361v11.68h2.43v-5.064zM82.259 14.35c-0.325-2.698-2.367-4.249-5.070-4.249-3.085 0-5.441 2.178-5.441 6 0 3.81 2.316 5.999 5.441 5.999 2.994 0 4.802-1.99 5.070-4.14l-2.498-0.011c-0.234 1.249-1.215 1.968-2.532 1.968-1.773 0-2.977-1.317-2.977-3.815 0-2.429 1.186-3.815 2.994-3.815 1.352 0 2.327 0.781 2.515 2.065h2.498zM88.798 18.211c0.006 1.175-0.799 1.791-1.671 1.791-0.918 0-1.512-0.644-1.517-1.677v-5.144h-2.429v5.577c0.005 2.047 1.203 3.296 2.965 3.296 1.318 0 2.264-0.679 2.658-1.705h0.091v1.591h2.333v-8.76h-2.429v5.030zM96.36 22.112c2.167 0 3.627-1.055 3.969-2.68l-2.247-0.148c-0.245 0.667-0.872 1.015-1.683 1.015-1.215 0-1.985-0.804-1.985-2.11v-0.006h5.965v-0.667c0-2.977-1.802-4.448-4.118-4.448-2.577 0-4.248 1.831-4.248 4.534 0 2.777 1.648 4.511 4.346 4.511zM94.415 16.677c0.052-0.998 0.81-1.796 1.888-1.796 1.055 0 1.785 0.753 1.791 1.796h-3.679zM108.451 15.679c-0.217-1.614-1.517-2.612-3.73-2.612-2.241 0-3.718 1.038-3.713 2.726-0.006 1.312 0.821 2.161 2.532 2.504l1.517 0.302c0.764 0.154 1.112 0.433 1.123 0.873-0.012 0.519-0.576 0.89-1.426 0.89-0.867 0-1.443-0.371-1.591-1.084l-2.389 0.125c0.228 1.677 1.654 2.709 3.975 2.709 2.269 0 3.895-1.158 3.901-2.886-0.006-1.266-0.833-2.024-2.532-2.372l-1.585-0.319c-0.815-0.177-1.118-0.456-1.112-0.878-0.006-0.525 0.588-0.867 1.34-0.867 0.844 0 1.346 0.462 1.466 1.027l2.225-0.137z"></path>
<path fill="#5c5cff" style="fill: var(--color2, #5c5cff)" d="M19.648 3.295c-6.041-1.466-17.672 8.554-17.697 15.997-0.030 8.87 13.242 12.736 19.695 9s4.043-23.531-1.998-24.997z"></path>
<path fill="#fff" style="fill: var(--color3, #fff)" d="M21.352 12.917c0 2.486-2.016 4.502-4.502 4.502s-4.502-2.016-4.502-4.502c0-2.486 2.016-4.502 4.502-4.502s4.502 2.016 4.502 4.502z"></path>
</symbol>
<symbol id="icon-logo-footer" viewBox="0 0 140 32">
<path fill="#ABABFA" style="fill: var(--color1, #ABABFA)" d="M114.381 22.087h3.464c2.091 0 3.056-1.079 3.056-2.552 0-1.478-0.979-2.367-1.925-2.433v-0.076c0.87-0.233 1.545-0.908 1.545-2.124 0-1.464-0.956-2.547-2.856-2.547h-3.284v9.733zM115.269 21.288v-3.75h2.614c1.308 0 2.168 0.884 2.168 1.996 0 1.008-0.703 1.754-2.205 1.754h-2.576zM115.269 16.75v-3.598h2.396c1.331 0 2.006 0.718 2.006 1.749 0 1.069-0.775 1.849-1.925 1.849h-2.476zM123.046 12.354h-0.846v9.733h0.846v-9.733zM127.453 22.239c1.892 0 3.213-1.545 3.213-3.769 0-2.238-1.321-3.783-3.213-3.783s-3.213 1.544-3.213 3.783c0 2.224 1.322 3.769 3.213 3.769zM127.453 21.464c-1.516 0-2.362-1.359-2.362-2.994s0.845-3.013 2.362-3.013 2.362 1.378 2.362 3.013c0 1.635-0.846 2.994-2.362 2.994zM134.638 24.976c1.73 0 3.013-0.846 3.013-2.699v-7.49h-0.827v1.393h-0.085c-0.3-0.656-0.903-1.492-2.243-1.492-1.806 0-3.018 1.511-3.018 3.731 0 2.238 1.255 3.593 3.004 3.593 1.312 0 1.953-0.76 2.243-1.43h0.076v1.644c0 1.359-0.87 1.991-2.163 1.991-1.25 0-1.848-0.604-2.157-1.16l-0.694 0.456c0.428 0.836 1.359 1.464 2.851 1.464zM134.581 21.236c-1.45 0-2.252-1.16-2.252-2.832 0-1.644 0.788-2.947 2.252-2.947 1.43 0 2.234 1.236 2.234 2.947 0 1.763-0.827 2.832-2.234 2.832z"></path>
<path fill="#ABABFA" style="fill: var(--color1, #ABABFA)" d="M36.218 12.297h3.576v9.644h2.441v-9.644h3.576v-2.036h-9.592v2.036zM49.264 22.112c2.167 0 3.627-1.055 3.969-2.68l-2.247-0.148c-0.245 0.667-0.873 1.015-1.682 1.015-1.215 0-1.985-0.804-1.985-2.11v-0.006h5.965v-0.667c0-2.977-1.802-4.448-4.117-4.448-2.578 0-4.249 1.831-4.249 4.534 0 2.777 1.648 4.511 4.346 4.511zM47.319 16.677c0.051-0.998 0.81-1.796 1.888-1.796 1.055 0 1.785 0.753 1.791 1.796h-3.678zM58.024 22.112c2.332 0 3.798-1.369 3.912-3.382h-2.293c-0.143 0.935-0.758 1.46-1.591 1.46-1.135 0-1.871-0.952-1.871-2.629 0-1.654 0.741-2.601 1.871-2.601 0.89 0 1.46 0.587 1.591 1.46h2.293c-0.103-2.025-1.637-3.353-3.924-3.353-2.658 0-4.3 1.842-4.3 4.528 0 2.663 1.614 4.517 4.311 4.517zM65.119 16.877c0.006-1.129 0.696-1.791 1.688-1.791 0.987 0 1.569 0.633 1.563 1.711v5.144h2.429v-5.577c0.006-2.053-1.203-3.296-3.028-3.296-1.329 0-2.218 0.627-2.618 1.66h-0.102v-4.465h-2.361v11.68h2.43v-5.064zM82.259 14.35c-0.325-2.698-2.367-4.249-5.070-4.249-3.085 0-5.441 2.178-5.441 6 0 3.81 2.316 5.999 5.441 5.999 2.994 0 4.802-1.99 5.070-4.14l-2.498-0.011c-0.234 1.249-1.215 1.968-2.532 1.968-1.773 0-2.977-1.317-2.977-3.815 0-2.429 1.186-3.815 2.994-3.815 1.352 0 2.327 0.781 2.515 2.065h2.498zM88.798 18.211c0.006 1.175-0.799 1.791-1.671 1.791-0.918 0-1.512-0.644-1.517-1.677v-5.144h-2.429v5.577c0.005 2.047 1.203 3.296 2.965 3.296 1.318 0 2.264-0.679 2.658-1.705h0.091v1.591h2.333v-8.76h-2.429v5.030zM96.36 22.112c2.167 0 3.627-1.055 3.969-2.68l-2.247-0.148c-0.245 0.667-0.872 1.015-1.683 1.015-1.215 0-1.985-0.804-1.985-2.11v-0.006h5.965v-0.667c0-2.977-1.802-4.448-4.118-4.448-2.577 0-4.248 1.831-4.248 4.534 0 2.777 1.648 4.511 4.346 4.511zM94.415 16.677c0.052-0.998 0.81-1.796 1.888-1.796 1.055 0 1.785 0.753 1.791 1.796h-3.679zM108.451 15.679c-0.217-1.614-1.517-2.612-3.73-2.612-2.241 0-3.718 1.038-3.713 2.726-0.006 1.312 0.821 2.161 2.532 2.504l1.517 0.302c0.764 0.154 1.112 0.433 1.123 0.873-0.012 0.519-0.576 0.89-1.426 0.89-0.867 0-1.443-0.371-1.591-1.084l-2.389 0.125c0.228 1.677 1.654 2.709 3.975 2.709 2.269 0 3.895-1.158 3.901-2.886-0.006-1.266-0.833-2.024-2.532-2.372l-1.585-0.319c-0.815-0.177-1.118-0.456-1.112-0.878-0.006-0.525 0.588-0.867 1.34-0.867 0.844 0 1.346 0.462 1.466 1.027l2.225-0.137z"></path>
<path fill="#ABABFA" style="fill: var(--color2, #ABABFA)" d="M19.648 3.295c-6.041-1.466-17.672 8.554-17.697 15.997-0.030 8.87 13.242 12.736 19.695 9s4.043-23.531-1.998-24.997z"></path>
<path fill="#1B1B4D" style="fill: var(--color3, #1B1B4D)" d="M21.352 12.917c0 2.486-2.016 4.502-4.502 4.502s-4.502-2.016-4.502-4.502c0-2.486 2.016-4.502 4.502-4.502s4.502 2.016 4.502 4.502z"></path>
</symbol>
<symbol id="icon-f" viewBox="0 0 32 32">
<path d="M18.285 32v-16.002h4.417l0.585-5.514h-5.003l0.008-2.76c0-1.438 0.137-2.209 2.202-2.209h2.761v-5.515h-4.418c-5.306 0-7.174 2.675-7.174 7.174v3.311h-3.308v5.514h3.308v16.001h6.621z"></path>
</symbol>
<symbol id="icon-i" viewBox="0 0 32 32">
<path d="M16 0c-4.347 0-4.889 0.020-6.596 0.096-1.704 0.080-2.864 0.348-3.884 0.744-1.052 0.408-1.945 0.956-2.835 1.845s-1.439 1.781-1.845 2.835c-0.396 1.020-0.665 2.18-0.744 3.884-0.080 1.707-0.096 2.249-0.096 6.596s0.020 4.889 0.096 6.596c0.080 1.703 0.348 2.864 0.744 3.884 0.408 1.051 0.956 1.945 1.845 2.835 0.889 0.888 1.781 1.439 2.835 1.845 1.021 0.395 2.181 0.665 3.884 0.744 1.707 0.080 2.249 0.096 6.596 0.096s4.889-0.020 6.596-0.096c1.703-0.080 2.864-0.349 3.884-0.744 1.051-0.408 1.945-0.957 2.835-1.845 0.888-0.889 1.439-1.78 1.845-2.835 0.395-1.020 0.665-2.181 0.744-3.884 0.080-1.707 0.096-2.249 0.096-6.596s-0.020-4.889-0.096-6.596c-0.080-1.703-0.349-2.865-0.744-3.884-0.408-1.052-0.957-1.945-1.845-2.835-0.889-0.889-1.78-1.439-2.835-1.845-1.020-0.396-2.181-0.665-3.884-0.744-1.707-0.080-2.249-0.096-6.596-0.096zM16 2.88c4.271 0 4.78 0.021 6.467 0.095 1.56 0.073 2.406 0.332 2.969 0.553 0.749 0.289 1.28 0.636 1.843 1.195 0.559 0.56 0.905 1.092 1.195 1.841 0.219 0.563 0.48 1.409 0.551 2.969 0.076 1.688 0.093 2.195 0.093 6.467s-0.020 4.78-0.099 6.467c-0.082 1.56-0.341 2.406-0.561 2.969-0.299 0.749-0.639 1.28-1.199 1.843-0.559 0.559-1.099 0.905-1.84 1.195-0.56 0.219-1.42 0.48-2.98 0.551-1.699 0.076-2.199 0.093-6.479 0.093-4.281 0-4.781-0.020-6.479-0.099-1.561-0.082-2.421-0.341-2.981-0.561-0.759-0.299-1.28-0.639-1.839-1.199-0.561-0.559-0.92-1.099-1.2-1.84-0.22-0.56-0.479-1.42-0.56-2.98-0.060-1.68-0.081-2.199-0.081-6.459 0-4.261 0.021-4.781 0.081-6.481 0.081-1.56 0.34-2.419 0.56-2.979 0.28-0.76 0.639-1.28 1.2-1.841 0.559-0.559 1.080-0.919 1.839-1.197 0.56-0.221 1.401-0.481 2.961-0.561 1.7-0.060 2.2-0.080 6.479-0.080l0.060 0.040zM16 7.784c-4.54 0-8.216 3.68-8.216 8.216 0 4.54 3.68 8.216 8.216 8.216 4.54 0 8.216-3.68 8.216-8.216 0-4.54-3.68-8.216-8.216-8.216zM16 21.333c-2.947 0-5.333-2.387-5.333-5.333s2.387-5.333 5.333-5.333c2.947 0 5.333 2.387 5.333 5.333s-2.387 5.333-5.333 5.333zM26.461 7.46c0 1.060-0.861 1.92-1.92 1.92-1.060 0-1.92-0.861-1.92-1.92s0.861-1.919 1.92-1.919c1.057-0.001 1.92 0.86 1.92 1.919z"></path>
</symbol>
<symbol id="icon-s" viewBox="0 0 32 32">
<path d="M6.723 20.22c-0.002 0.891-0.356 1.745-0.986 2.375s-1.483 0.986-2.374 0.989c-0.891-0.002-1.746-0.357-2.376-0.988s-0.985-1.485-0.987-2.376c0.002-0.891 0.358-1.744 0.988-2.374s1.484-0.984 2.375-0.986h3.36v3.36zM8.417 20.22c0.002-0.891 0.357-1.744 0.987-2.374s1.483-0.984 2.374-0.986c0.891 0.002 1.744 0.357 2.374 0.986s0.985 1.483 0.987 2.374v8.417c-0.002 0.891-0.357 1.745-0.987 2.375s-1.484 0.985-2.375 0.988c-0.891-0.002-1.745-0.358-2.375-0.988s-0.985-1.484-0.987-2.375v-8.417zM11.779 6.723c-0.89-0.002-1.744-0.357-2.374-0.987s-0.985-1.483-0.988-2.373c0.002-0.891 0.357-1.745 0.987-2.375s1.484-0.985 2.375-0.988c0.891 0.002 1.745 0.358 2.375 0.988s0.985 1.484 0.987 2.375v3.36h-3.361zM11.779 8.417c0.891 0.002 1.744 0.357 2.374 0.987s0.985 1.483 0.987 2.374c-0.002 0.891-0.357 1.744-0.987 2.374s-1.483 0.985-2.374 0.987h-8.416c-0.891-0.002-1.745-0.357-2.375-0.987s-0.985-1.484-0.988-2.375c0.002-0.891 0.358-1.745 0.988-2.375s1.484-0.985 2.375-0.987h8.416zM25.275 11.779c0.002-0.891 0.358-1.745 0.988-2.375s1.484-0.985 2.375-0.987c0.891 0.002 1.745 0.357 2.375 0.987s0.985 1.484 0.988 2.375c-0.002 0.891-0.358 1.745-0.988 2.375s-1.484 0.985-2.375 0.987h-3.363v-3.361zM23.584 11.779c-0.002 0.891-0.358 1.745-0.988 2.375s-1.485 0.985-2.376 0.986c-0.891-0.002-1.744-0.357-2.374-0.987s-0.984-1.483-0.986-2.374v-8.416c0.002-0.891 0.356-1.745 0.986-2.375s1.483-0.985 2.374-0.988c0.892 0.002 1.746 0.357 2.376 0.987s0.986 1.484 0.988 2.376v8.416zM20.22 25.275c0.892 0.002 1.746 0.356 2.376 0.987s0.986 1.484 0.988 2.376c-0.002 0.891-0.357 1.746-0.988 2.376s-1.485 0.985-2.376 0.987c-0.891-0.002-1.744-0.358-2.374-0.988s-0.984-1.484-0.986-2.375v-3.363h3.36zM20.22 23.584c-0.891-0.002-1.745-0.358-2.375-0.988s-0.984-1.485-0.985-2.376c0.002-0.891 0.357-1.744 0.986-2.374s1.483-0.984 2.374-0.986h8.417c0.891 0.002 1.744 0.356 2.375 0.986s0.985 1.483 0.988 2.374c-0.002 0.892-0.356 1.746-0.987 2.376s-1.484 0.986-2.376 0.988h-8.417z"></path>
</symbol>
<symbol id="icon-search" viewBox="0 0 32 32">
<path d="M13.44 1.92c-6.003 0-10.88 4.878-10.88 10.88s4.878 10.88 10.88 10.88c2.375 0 4.57-0.765 6.36-2.060l8.42 8.4 1.8-1.8-8.32-8.34c1.635-1.905 2.62-4.378 2.62-7.080 0-6.003-4.878-10.88-10.88-10.88zM13.44 3.2c5.31 0 9.6 4.29 9.6 9.6s-4.29 9.6-9.6 9.6c-5.31 0-9.6-4.29-9.6-9.6s4.29-9.6 9.6-9.6z"></path>
</symbol>
<symbol id="icon-t" viewBox="0 0 32 32">
<path d="M31.939 6.092c-1.18 0.519-2.44 0.872-3.767 1.033 1.352-0.815 2.392-2.099 2.884-3.631-1.268 0.74-2.673 1.279-4.169 1.579-1.195-1.279-2.897-2.079-4.788-2.079-3.623 0-6.56 2.937-6.56 6.556 0 0.52 0.060 1.020 0.169 1.499-5.453-0.257-10.287-2.876-13.521-6.835-0.569 0.963-0.888 2.081-0.888 3.3 0 2.28 1.16 4.284 2.917 5.461-1.076-0.035-2.088-0.331-2.971-0.821v0.081c0 3.18 2.257 5.832 5.261 6.436-0.551 0.148-1.132 0.228-1.728 0.228-0.419 0-0.82-0.040-1.221-0.115 0.841 2.604 3.26 4.503 6.139 4.556-2.24 1.759-5.079 2.807-8.136 2.807-0.52 0-1.039-0.031-1.56-0.089 2.919 1.859 6.357 2.945 10.076 2.945 12.072 0 18.665-9.995 18.665-18.648 0-0.279 0-0.56-0.020-0.84 1.281-0.919 2.4-2.080 3.28-3.397l-0.063-0.027z"></path>
</symbol>
<symbol id="icon-arrow" viewBox="0 0 20 20">
<path d="M16.172 9l-6.071-6.071 1.414-1.414 8.485 8.485-8.485 8.485-1.414-1.414 6.071-6.071h-16.172v-2z"></path>
</symbol>
</defs>
</svg>
